<?xml version="1.0" encoding="UTF-8"?>
<svg id="Calque_1" data-name="Calque 1" xmlns="http://www.w3.org/2000/svg" viewBox="0 0 158.4 281.55">
  <defs>
    <style>
      .cls-1 {
        fill: #ededed;
        stroke: #1d1d1b;
        stroke-miterlimit: 10;
        stroke-width: 4px;
      }
    </style>
  </defs>
  <path class="cls-1" d="m156.4,71.43c0,11.94-2.13,22.57-6.39,31.89-4.27,9.32-9.87,17.57-16.81,24.76-6.82,6.94-14.68,13.46-23.57,19.55-8.89,6.09-18.34,12-28.32,17.72v41.11h-32.71v-55.73c7.92-4.51,16.47-9.44,25.67-14.8,9.2-5.36,16.72-10.78,22.57-16.26,7.06-6.33,12.54-12.88,16.44-19.64,3.9-6.76,5.85-15.38,5.85-25.86,0-13.76-4.66-24.03-13.98-30.79-9.32-6.76-21.35-10.14-36.09-10.14-13.16,0-25.61,2.07-37.37,6.21-11.76,4.14-21.04,8.35-27.86,12.61h-1.83V14.79c8.53-3.29,19.34-6.24,32.43-8.86,13.09-2.62,25.49-3.93,37.18-3.93,26.19,0,46.87,6.37,62.03,19.09,15.17,12.73,22.75,29.51,22.75,50.34Zm-72.17,208.12h-37.27v-38.55h37.27v38.55Z"/>
</svg>