<?xml version="1.0" encoding="UTF-8"?>
<svg id="Calque_1" data-name="Calque 1" xmlns="http://www.w3.org/2000/svg" viewBox="0 0 375.02 241.28">
  <defs>
    <style>
      .cls-1 {
        fill: #f9b233;
      }

      .cls-1, .cls-2, .cls-3 {
        stroke: #1d1d1b;
        stroke-miterlimit: 10;
        stroke-width: 4px;
      }

      .cls-2 {
        fill: #dadada;
      }

      .cls-3 {
        fill: #ededed;
      }
    </style>
  </defs>
  <path class="cls-1" d="m362.69,23.89h-221.81c-6.01-7.3-12.01-14.6-18.02-21.89h-35.51c-7.33,7.3-14.66,14.6-22,21.89h-19.08c-5.71,0-10.34,5.17-10.34,11.54v189.35c0,6.37,4.63,11.54,10.34,11.54h316.42c5.71,0,10.34-5.17,10.34-11.54V35.43c0-6.37-4.63-11.54-10.34-11.54Z"/>
  <rect class="cls-2" x="73.04" y="30.7" width="293.1" height="182.54" rx="15.68" ry="15.68"/>
  <rect class="cls-3" x="53.68" y="47.56" width="293.1" height="157.4" rx="15.68" ry="15.68"/>
  <path class="cls-1" d="m359.16,239.28H48.02c-6.6,0-12.29-3.92-13.58-9.36L2.27,94.2c-1.69-7.14,4.76-13.82,13.42-13.9l272.01-2.56c5.57-.05,10.64,2.71,12.86,7.01l71.3,138.28c3.96,7.68-2.74,16.25-12.7,16.25Z"/>
</svg>