<?xml version="1.0" encoding="UTF-8"?>
<svg id="Calque_1" data-name="Calque 1" xmlns="http://www.w3.org/2000/svg" viewBox="0 0 454.09 408.11">
  <defs>
    <style>
      .cls-1 {
        fill: #f9b233;
      }

      .cls-1, .cls-2, .cls-3, .cls-4 {
        stroke: #1d1d1b;
        stroke-miterlimit: 10;
        stroke-width: 4px;
      }

      .cls-2 {
        fill: #e72d59;
      }

      .cls-3 {
        fill: #ededed;
      }

      .cls-4 {
        fill: #1d1d1b;
      }
    </style>
  </defs>
  <path class="cls-3" d="m327.99,406.11H21.05c-14.09,0-23.3-14.4-17.07-26.71l86.47-170.98c3-5.94,9.04-9.87,15.82-10.3l168.84-10.78c9-.57,17.18,5.08,19.58,13.55l51.63,181.76c3.35,11.8-5.76,23.47-18.34,23.47Z"/>
  <rect class="cls-2" x="401.78" y="2.69" width="39.05" height="59.47" rx="10.2" ry="10.2" transform="translate(688.19 360.02) rotate(-133.57)"/>
  <rect class="cls-1" x="323.42" y="-11.39" width="39.05" height="236.69" transform="translate(501.82 429.15) rotate(-133.57)"/>
  <rect class="cls-1" x="332.71" y="-12.07" width="17.33" height="241.04" transform="translate(498.08 430.54) rotate(-133.57)"/>
  <path class="cls-3" d="m202.96,240.31l67.9-37.44c-.23-1.71-.85-3.99-2.66-5.65-1.3-1.18-2.04-.98-3.68-2.2-2.61-1.95-2.02-3.45-4.39-5.95-2.9-3.05-5-2.08-6.21-4.53-1.3-2.63.65-4.64-.82-6.18-1.22-1.29-2.97-.31-5.96-1.61-1.6-.69-2.71-1.68-3.39-2.38-13.59,21.98-27.19,43.96-40.78,65.94Z"/>
  <polygon class="cls-4" points="202.86 240.21 239.18 219.24 225.62 204.98 202.86 240.21"/>
</svg>